<svg xmlns="http://www.w3.org/2000/svg" width="400" height="400" viewBox="0 0 300 300"><path d="M133.5 13.7C115.6 23.9 54.4 58.6 48 62.2c-2.5 1.4-8.3 4.7-13 7.4-4.7 2.7-9.7 5.5-11 6.2l-2.5 1.3.1 72.7.1 72.7 19.9 11.3c10.9 6.2 22.2 12.6 24.9 14.1 2.8 1.6 16.7 9.5 31 17.6 14.3 8.1 28 15.9 30.5 17.3 2.5 1.3 8.2 4.7 12.8 7.3l8.3 4.9 3.8-2c2.2-1.1 13.5-7.4 25.3-14.1 11.7-6.7 24.7-14.1 28.8-16.4 9.4-5.2 13.2-7.4 34.9-19.8 9.7-5.5 20.1-11.4 23.1-13 3-1.7 7.1-4 9-5.2l3.5-2.2V77.1L260 67.2c-9.6-5.5-28.7-16.4-42.5-24.2-13.7-7.8-27.7-15.7-31-17.5-3.3-1.9-12.7-7.2-21-11.9-8.2-4.7-15.4-8.6-16-8.6-.5.1-7.7 3.9-16 8.7zM95.6 119.9c.5.4 5.9 3.4 11.9 6.6 6.1 3.2 16.9 9 24 12.9 7.2 3.9 14.2 7.7 15.6 8.4 2.9 1.5-.9 3.3 35.9-16.6 11.3-6.1 21.2-11.3 22-11.7 1.4-.5 1.6 1.5 1.5 16 0 9.3-.5 16.8-1 17.4-1.1.9-6.2 3.8-19.5 10.8-12.5 6.7-15 8.3-15 9.9 0 1.1 3.4 1.4 17.8 1.6l17.7.3v27l-56.8.1-56.7.2-.1-2.2c-.1-2.5-.1-20.2 0-23.4.1-2.2.1-2.2 17.9-2.2 20.8 0 22.1-.8 11.3-6.4-3.6-1.9-11.7-6.3-18-9.8l-11.4-6.3.1-12.5c.1-19.4.1-21 1-21 .4 0 1.2.4 1.8.9z"/></svg>