<?xml version="1.0" standalone="no"?>
<!DOCTYPE svg PUBLIC "-//W3C//DTD SVG 20010904//EN"
 "http://www.w3.org/TR/2001/REC-SVG-20010904/DTD/svg10.dtd">
<svg version="1.0" xmlns="http://www.w3.org/2000/svg"
 width="300.000000pt" height="300.000000pt" viewBox="0 0 300.000000 300.000000"
 preserveAspectRatio="xMidYMid meet">
<metadata>
Created by potrace 1.11, written by Peter Selinger 2001-2013
</metadata>
<g transform="translate(0.000000,300.000000) scale(0.100000,-0.100000)"
fill="#000000" stroke="none">
<path d="M1335 2863 c-179 -102 -791 -449 -855 -485 -25 -14 -83 -47 -130 -74
-47 -27 -97 -55 -110 -62 l-25 -13 1 -727 1 -727 199 -113 c109 -62 222 -126
249 -141 28 -16 167 -95 310 -176 143 -81 280 -159 305 -173 25 -13 82 -47
128 -73 l83 -49 38 20 c22 11 135 74 253 141 117 67 247 141 288 164 94 52
132 74 349 198 97 55 201 114 231 130 30 17 71 40 90 52 l35 22 0 726 0 726
-175 99 c-96 55 -287 164 -425 242 -137 78 -277 157 -310 175 -33 19 -127 72
-210 119 -82 47 -154 86 -160 86 -5 -1 -77 -39 -160 -87z m-379 -1062 c5 -4
59 -34 119 -66 61 -32 169 -90 240 -129 72 -39 142 -77 156 -84 29 -15 -9 -33
359 166 113 61 212 113 220 117 14 5 16 -15 15 -160 0 -93 -5 -168 -10 -174
-11 -9 -62 -38 -195 -108 -125 -67 -150 -83 -150 -99 0 -11 34 -14 178 -16
l177 -3 0 -135 0 -135 -568 -1 -567 -2 -1 22 c-1 25 -1 202 0 234 1 22 1 22
179 22 208 0 221 8 113 64 -36 19 -117 63 -180 98 l-114 63 1 125 c1 194 1
210 10 210 4 0 12 -4 18 -9z"/>
</g>
</svg>
